<svg width="156" height="130" viewBox="0 0 156 130" fill="none" xmlns="http://www.w3.org/2000/svg">
<g filter="url(#filter0_dd_199668_4728)">
<rect x="41" y="21" width="74" height="48" rx="10" fill="#006FCF"/>
<rect x="40.5" y="20.5" width="75" height="49" rx="10.5" stroke="#D6DCE5"/>
<path fill-rule="evenodd" clip-rule="evenodd" d="M115.028 29.6906H108.903L105.701 38.9412L102.36 29.6906H96.0961V44.0945L89.6926 29.6906H84.5423L78.1388 44.4072H82.5932L83.846 41.464H90.528L91.7808 44.4072H100.133V34.1755L103.891 44.4072H107.371L111.13 34.1755V44.4072H115.028V46.6497H109.877L105.701 51.275L101.386 46.6497H83.707V61.3662H101.247L105.562 56.601L109.877 61.3662H115.028V63.188H108.903L105.562 59.5441L102.221 63.188H81.4798V46.3693H74.7979L83.1501 27.4478H91.2239L94.147 33.8952V27.4478H104.17L105.84 32.3534L107.511 27.4478H115.028V29.6906ZM115.028 49.8732L111.269 53.9378L115.028 58.0023V61.3662L108.207 53.9378L115.028 46.6497V49.8732ZM96.0961 61.3662V57.8624H87.7439V55.6199H95.9567V52.256H87.7439V50.0135H96.0961V46.6497L103.056 53.9378L96.0961 61.3662ZM85.0988 38.2401L87.048 33.4748L88.9967 38.2401H85.0988Z" fill="white"/>
</g>

</svg>
