<svg width="157" height="130" viewBox="0 0 157 130" fill="none" xmlns="http://www.w3.org/2000/svg">
<g filter="url(#filter0_dd_199668_4726)">
<rect x="41" y="21" width="75" height="48" rx="10" fill="#000008"/>
<rect x="40.5" y="20.5" width="76" height="49" rx="10.5" stroke="#D6DCE5"/>
<path d="M83.8877 35.5013H72.845V55.215H83.8877V35.5013Z" fill="#FF5F00"/>
<path d="M73.5462 45.3581C73.5445 43.4595 73.9775 41.5855 74.8126 39.8777C75.6477 38.17 76.863 36.6734 78.3664 35.5013C76.5046 34.0475 74.2687 33.1435 71.9142 32.8924C69.5598 32.6414 67.1817 33.0534 65.0518 34.0816C62.9219 35.1097 61.1262 36.7125 59.8698 38.7066C58.6135 40.7006 57.9473 43.0056 57.9473 45.3581C57.9473 47.7106 58.6135 50.0156 59.8698 52.0097C61.1262 54.0038 62.9219 55.6065 65.0518 56.6346C67.1817 57.6628 69.5598 58.0749 71.9142 57.8238C74.2687 57.5728 76.5046 56.6687 78.3664 55.2149C76.863 54.0428 75.6478 52.5462 74.8127 50.8385C73.9776 49.1308 73.5445 47.2567 73.5462 45.3581Z" fill="#EB001B"/>
<path d="M98.7849 45.3581C98.7849 47.7105 98.1188 50.0155 96.8625 52.0096C95.6063 54.0037 93.8106 55.6064 91.6807 56.6346C89.5509 57.6628 87.1728 58.0749 84.8184 57.8238C82.4639 57.5728 80.2281 56.6687 78.3664 55.2149C79.8684 54.0416 81.0827 52.5448 81.9177 50.8373C82.7527 49.1299 83.1865 47.2564 83.1865 45.3581C83.1865 43.4598 82.7527 41.5864 81.9177 39.8789C81.0827 38.1715 79.8684 36.6746 78.3664 35.5013C80.2281 34.0475 82.4639 33.1434 84.8184 32.8924C87.1728 32.6414 89.5509 33.0535 91.6807 34.0816C93.8106 35.1098 95.6063 36.7125 96.8625 38.7066C98.1188 40.7007 98.7849 43.0057 98.7849 45.3581Z" fill="#F79E1B"/>
<path d="M97.5808 53.127V52.7234H97.7446V52.6411H97.3274V52.7234H97.4913V53.127H97.5808ZM98.3908 53.127V52.6403H98.2629L98.1158 52.9751L97.9687 52.6403H97.8407V53.127H97.931V52.7599L98.069 53.0764H98.1626L98.3006 52.7591V53.127H98.3908Z" fill="#F79E1B"/>
</g>
<defs>
<filter id="filter0_dd_199668_4726" x="0" y="0" width="157" height="130" filterUnits="userSpaceOnUse" color-interpolation-filters="sRGB">
<feFlood flood-opacity="0" result="BackgroundImageFix"/>
<feColorMatrix in="SourceAlpha" type="matrix" values="0 0 0 0 0 0 0 0 0 0 0 0 0 0 0 0 0 0 127 0" result="hardAlpha"/>
<feOffset dy="2"/>
<feGaussianBlur stdDeviation="10"/>
<feColorMatrix type="matrix" values="0 0 0 0 0.717647 0 0 0 0 0.717647 0 0 0 0 0.717647 0 0 0 0.08 0"/>
<feBlend mode="normal" in2="BackgroundImageFix" result="effect1_dropShadow_199668_4726"/>
<feColorMatrix in="SourceAlpha" type="matrix" values="0 0 0 0 0 0 0 0 0 0 0 0 0 0 0 0 0 0 127 0" result="hardAlpha"/>
<feOffset dy="20"/>
<feGaussianBlur stdDeviation="20"/>
<feColorMatrix type="matrix" values="0 0 0 0 0.717647 0 0 0 0 0.717647 0 0 0 0 0.717647 0 0 0 0.08 0"/>
<feBlend mode="normal" in2="effect1_dropShadow_199668_4726" result="effect2_dropShadow_199668_4726"/>
<feBlend mode="normal" in="SourceGraphic" in2="effect2_dropShadow_199668_4726" result="shape"/>
</filter>
</defs>
</svg>
