<svg width="157" height="130" viewBox="0 0 157 130" fill="none" xmlns="http://www.w3.org/2000/svg">
<g filter="url(#filter0_dd_199668_4730)">
<rect x="41" y="21" width="75" height="48" rx="10" fill="#253B80"/>
<rect x="40.5" y="20.5" width="76" height="49" rx="10.5" stroke="#D6DCE5"/>
<path fill-rule="evenodd" clip-rule="evenodd" d="M57.0461 38.0167H52.7221C52.4262 38.0167 52.1745 38.2303 52.1284 38.5204L50.3795 49.5344C50.3448 49.7518 50.5142 49.9477 50.7362 49.9477H52.8005C53.0964 49.9477 53.348 49.7341 53.3942 49.4434L53.8659 46.4728C53.9114 46.1819 54.1637 45.9686 54.4589 45.9686H55.8278C58.6762 45.9686 60.32 44.5994 60.7495 41.8863C60.9429 40.6993 60.7577 39.7666 60.198 39.1133C59.5835 38.3963 58.4933 38.0167 57.0461 38.0167ZM57.545 42.0394C57.3086 43.5807 56.1231 43.5807 54.9768 43.5807H54.3243L54.782 40.7022C54.8092 40.5284 54.9609 40.4002 55.138 40.4002H55.437C56.2179 40.4002 56.9546 40.4002 57.3352 40.8423C57.562 41.1062 57.6316 41.498 57.545 42.0394ZM69.9718 41.99H67.9011C67.7246 41.99 67.5722 42.1182 67.545 42.2923L67.4534 42.8675L67.3086 42.6591C66.8603 42.0127 65.8608 41.7967 64.8631 41.7967C62.5747 41.7967 60.6205 43.5182 60.2398 45.9331C60.042 47.1375 60.3232 48.2893 61.0111 49.0926C61.6422 49.8312 62.5451 50.1389 63.6193 50.1389C65.4629 50.1389 66.4855 48.9613 66.4855 48.9613L66.393 49.533C66.3582 49.7515 66.5276 49.9474 66.7483 49.9474H68.6135C68.9102 49.9474 69.1604 49.7338 69.2072 49.4431L70.3264 42.4033C70.3618 42.1868 70.193 41.99 69.9718 41.99ZM67.0853 45.9933C66.8855 47.1683 65.9465 47.9571 64.7493 47.9571C64.148 47.9571 63.6672 47.7656 63.3588 47.4026C63.0528 47.0422 62.9363 46.5289 63.0338 45.9575C63.2205 44.7924 64.1752 43.978 65.3543 43.978C65.9422 43.978 66.4203 44.1718 66.7351 44.538C67.0505 44.908 67.1757 45.4242 67.0853 45.9933ZM78.919 41.9897H80.9999C81.2913 41.9897 81.4613 42.3144 81.2957 42.5518L74.375 52.4748C74.2629 52.6355 74.0783 52.7311 73.8811 52.7311H71.8028C71.5102 52.7311 71.3393 52.4039 71.5088 52.1658L73.6637 49.1444L71.3718 42.4632C71.2925 42.231 71.4652 41.9897 71.7139 41.9897H73.7585C74.0242 41.9897 74.2586 42.1629 74.3352 42.4155L75.5515 46.4507L78.4216 42.2516C78.5339 42.0877 78.7206 41.9897 78.919 41.9897Z" fill="white"/>
<path fill-rule="evenodd" clip-rule="evenodd" d="M101.481 49.5334L103.255 38.318C103.282 38.1439 103.434 38.0157 103.611 38.0151H105.608C105.829 38.0151 105.999 38.2116 105.964 38.429L104.214 49.4425C104.168 49.7331 103.916 49.9467 103.62 49.9467H101.836C101.615 49.9467 101.446 49.7508 101.481 49.5334ZM87.8899 38.0157H83.5651C83.2698 38.0157 83.0182 38.2293 82.972 38.5194L81.2231 49.5334C81.1883 49.7508 81.3577 49.9467 81.5786 49.9467H83.7977C84.0039 49.9467 84.1804 49.7973 84.2126 49.5939L84.7088 46.4718C84.7544 46.1809 85.0067 45.9676 85.3019 45.9676H86.6701C89.519 45.9676 91.1625 44.5984 91.5924 41.8853C91.7864 40.6983 91.6 39.7656 91.0405 39.1123C90.4264 38.3953 89.337 38.0157 87.8899 38.0157ZM88.3887 42.0384C88.1529 43.5797 86.9673 43.5797 85.8204 43.5797H85.1685L85.627 40.7012C85.6542 40.5274 85.8046 40.3992 85.9822 40.3992H86.2812C87.0615 40.3992 87.7989 40.3992 88.1793 40.8413C88.4063 41.1052 88.4754 41.497 88.3887 42.0384ZM100.814 41.989H98.7451C98.5672 41.989 98.4162 42.1172 98.3896 42.2913L98.298 42.8665L98.1526 42.6581C97.7043 42.0117 96.7054 41.7958 95.7077 41.7958C93.4193 41.7958 91.4657 43.5172 91.085 45.9321C90.8878 47.1365 91.1678 48.2883 91.8557 49.0917C92.488 49.8302 93.3898 50.138 94.4639 50.138C96.3075 50.138 97.3298 48.9603 97.3298 48.9603L97.2377 49.532C97.2028 49.7505 97.3723 49.9464 97.5943 49.9464H99.4587C99.754 49.9464 100.006 49.7328 100.052 49.4422L101.172 42.4023C101.206 42.1858 101.036 41.989 100.814 41.989ZM97.9282 45.9923C97.7295 47.1673 96.7894 47.9561 95.5918 47.9561C94.9917 47.9561 94.5101 47.7646 94.2014 47.4016C93.8954 47.0412 93.7804 46.5279 93.8766 45.9565C94.0642 44.7914 95.0178 43.977 96.1969 43.977C96.785 43.977 97.2628 44.1709 97.5779 44.5371C97.8945 44.907 98.0198 45.4232 97.9282 45.9923Z" fill="white"/>
</g>

</svg>
