<svg width="75" height="48" viewBox="0 0 75 48" fill="none" xmlns="http://www.w3.org/2000/svg">
  <rect x="0" y="0" width="75" height="48" rx="10" fill="#1434CB"/>
  <rect x="-0.5" y="-0.5" width="76" height="49" rx="10.5" stroke="#D6DCE5"/>
  <path d="M37.0416 16.1776L33.5433 32.4228H29.3132L32.812 16.1776H37.0416ZM54.8393 26.6672L57.0664 20.5665L58.3479 26.6672H54.8393ZM59.559 32.4228H63.472L60.057 16.1776H56.4458C55.6342 16.1776 54.9495 16.6465 54.6446 17.3694L48.2982 32.4228H52.7405L53.6224 29.9969H59.05L59.559 32.4228ZM48.5187 27.1186C48.5368 22.8309 42.5501 22.5949 42.5915 20.6796C42.6039 20.0961 43.1634 19.477 44.3854 19.3181C44.9925 19.2395 46.6617 19.1793 48.557 20.0457L49.2992 16.6007C48.2811 16.2336 46.9712 15.8804 45.3419 15.8804C41.1609 15.8804 38.218 18.0887 38.1932 21.2509C38.1668 23.5893 40.294 24.8943 41.8969 25.6717C43.5448 26.4682 44.0986 26.9782 44.0914 27.6904C44.0805 28.7809 42.7768 29.2612 41.5605 29.2802C39.4333 29.3136 38.1989 28.71 37.215 28.2544L36.4485 31.814C37.4365 32.265 39.2609 32.6567 41.1537 32.6768C45.597 32.6768 48.5042 30.4957 48.5187 27.1186ZM30.9969 16.1776L24.1432 32.4228H19.6709L16.2984 19.458C16.0935 18.6595 15.9154 18.3674 15.2928 18.0306C14.2768 17.483 12.5973 16.9684 11.1196 16.6496L11.2206 16.1776H18.4184C19.3355 16.1776 20.1611 16.7843 20.3691 17.8337L22.1506 27.2348L26.5525 16.1776H30.9969Z" fill="white"/>
</svg>
